<svg width="108" height="113" viewBox="0 0 108 113" fill="none" xmlns="http://www.w3.org/2000/svg">
<path d="M30.6914 76.5225C38.2596 87.1036 48.6574 95.8363 54.0992 99.3605C59.5411 95.8363 69.9388 87.1036 77.5071 76.5225H30.6914Z" fill="#172945"/>
<path d="M85.7434 59.8632C89.9641 44.5571 87.2145 31.1802 85.2969 23.4398C77.7268 22.0579 64.931 19.1429 54.098 13.8359C43.265 19.1429 30.4693 22.057 22.8992 23.4398C20.9824 31.1811 18.2319 44.558 22.4536 59.8632H85.7443H85.7434Z" fill="#172945"/>
<path d="M75.6331 41.055C74.5041 38.5202 72.8741 36.6089 71.104 35.1641C69.5915 31.9937 67.8496 30.5273 67.8496 30.5273C67.9953 31.2558 67.8844 32.0857 67.6118 32.94C63.846 31.0718 60.4102 30.8146 60.4102 30.8146C62.6014 32.2463 64.5416 34.0225 66.2102 35.8522C64.676 38.3503 62.6531 40.4589 62.6531 40.4589C65.3312 39.8533 67.4867 39.5999 69.2155 39.5567C71.8588 43.1964 73.2849 46.2531 73.2849 46.2531C73.3375 43.7935 73.0922 41.6464 72.6795 39.7923C74.9196 40.2213 75.6331 41.055 75.6331 41.055Z" fill="white"/>
<path d="M60.4097 30.8158C58.5842 29.8986 56.832 29.2583 55.2076 28.8171C57.2794 27.0681 59.2037 26.6269 59.2037 26.6269C55.8807 26.4936 53.0201 27.0944 50.6277 28.0135C47.0537 27.7281 44.7788 28.3486 44.7788 28.3486C45.3137 28.7514 45.7659 29.4677 46.2265 30.3314C43.2109 32.393 41.6758 34.5456 41.6758 34.5456C43.4919 33.6453 45.4237 32.959 47.3292 32.438C47.536 32.8192 47.7569 33.1994 47.9966 33.5702C49.2572 35.5323 50.6409 36.9001 50.6409 36.9001C51.1335 34.5475 51.9852 32.7197 52.9637 31.2993C57.2117 30.7125 60.4097 30.8148 60.4097 30.8148" fill="white"/>
<path d="M37.4706 38.0546C38.6081 36.9534 39.9928 35.7696 41.6754 34.5454C41.6754 34.5454 40.1253 34.5454 38.4878 34.9613C39.5716 32.343 40.7711 30.8916 40.7711 30.8916C40.7711 30.8916 33.875 35.7902 32.5684 44.5914C32.5684 44.5914 33.1446 43.003 35.1102 40.5997C35.8886 42.3458 36.7872 43.4452 36.7872 43.4452C36.8013 41.4352 37.0721 39.6299 37.4688 38.0555" fill="white"/>
<path d="M42.9948 47.2896C40.6033 47.3629 38.7279 47.5741 37.2634 47.8407C36.8516 45.2816 36.7896 43.4443 36.7896 43.4443C35.607 45.244 34.84 46.9827 34.3681 48.6002C32.7014 49.2179 32.2793 49.8159 32.2793 49.8159C32.5406 50.7022 33.0614 51.5658 33.7166 52.3751C33.5126 56.2063 34.7516 58.7373 34.7516 58.7373C35.0327 57.392 35.5882 56.0871 36.2895 54.8648C38.3303 56.4992 40.3514 57.5629 40.3514 57.5629C39.3982 55.8599 38.6988 53.9504 38.1837 52.1C40.4717 49.2282 42.9948 47.2906 42.9948 47.2906" fill="white"/>
<path d="M49.8959 52.8177H53.8262C54.1289 52.3445 54.4316 51.8742 54.7342 51.4142C56.9715 52.031 58.9381 52.4957 60.4121 52.8177H62.6277C60.7759 50.9241 59.0988 48.9949 57.638 47.1615C60.4421 43.1988 62.6522 40.4603 62.6522 40.4603C59.676 41.1156 56.8644 41.9211 54.3451 42.7472C51.9546 39.3178 50.6404 36.9014 50.6404 36.9014C49.9419 39.4784 49.6035 42.0572 49.4898 44.4793C45.4946 46.0265 42.9941 47.291 42.9941 47.291C45.1572 48.2636 47.401 49.1104 49.5744 49.8427C49.6562 50.9195 49.7699 51.9155 49.8949 52.8186L49.8959 52.8177Z" fill="white"/>
<path d="M67.7545 57.9269C67.3155 58.6657 66.9178 59.2966 66.5512 59.8627H73.2894C73.5216 59.1173 73.7491 58.1456 73.8816 56.8848C76.415 53.5765 76.7929 50.1912 76.7929 50.1912C76.134 51.2201 75.13 51.9515 73.9521 52.4678C73.7923 49.1717 73.2847 46.2539 73.2847 46.2539C72.2817 48.9623 71.2147 51.3638 70.191 53.4376C66.6471 53.8929 63.1699 53.3737 63.1699 53.3737C65.0791 55.6541 66.5587 57.0097 67.7554 57.9259L67.7545 57.9269Z" fill="white"/>
<path d="M43.4832 82.9284H41.9707V81.9577H42.2922L43.0066 78.3076H44.9628L45.6707 81.9577H45.9922V82.9284H44.4928L44.3387 81.8037H43.6242L43.4823 82.9284H43.4832ZM43.7088 81.0001H44.2691L43.9796 79.1619L43.7098 81.0001H43.7088Z" fill="white"/>
<path d="M47.5569 82.9284C47.1875 82.9284 46.9205 82.8505 46.756 82.6946C46.5905 82.5388 46.5078 82.2938 46.5078 81.9596V79.4182C46.5078 79.0286 46.5896 78.7461 46.7522 78.5715C46.9158 78.3959 47.1837 78.3086 47.5569 78.3086H49.6419V79.6454H48.496V79.2793H47.7618V81.9596H48.496V81.079H48.1096V80.1533H49.6861V82.9293H47.556L47.5569 82.9284Z" fill="white"/>
<path d="M53.6839 82.9283H50.2988V81.9576H50.6203V79.2774H50.2988V78.3066H53.6388V79.7787H52.5765V79.2774H51.8753V80.1514H52.8407V80.9869H51.8753V81.9567H52.5765V81.3652H53.6839V82.9274V82.9283Z" fill="white"/>
<path d="M55.6986 82.9283H54.1992V81.9576H54.5207V79.2774H54.1992V78.3066H55.6864L56.8313 80.5757V78.3066H58.3185V79.2774H57.9904V81.9576H58.3185V82.9283H56.8313L55.6986 80.6658V82.9283Z" fill="white"/>
<path d="M59.9963 82.9284C59.6316 82.9284 59.3656 82.8514 59.1983 82.6975C59.0309 82.5435 58.9473 82.2975 58.9473 81.9596V79.4182C58.9473 79.0287 59.029 78.7461 59.1917 78.5715C59.3552 78.3959 59.6231 78.3086 59.9963 78.3086H62.0108V79.7872H60.9364V79.2793H60.2032V81.9596H60.9364V81.2207H62.056V82.9303H59.9963V82.9284Z" fill="white"/>
<path d="M62.8488 79.2774H62.5273V78.3066H63.8208L64.3679 79.7205L64.9216 78.3066H66.2151V79.2774H65.887L64.9987 81.0338V81.9567H65.3202V82.9274H63.4223V81.9567H63.7438V81.0526L62.8498 79.2764L62.8488 79.2774Z" fill="white"/>
<path d="M54.0997 86.334L55.0933 88.3439L57.3155 88.6669L55.7081 90.2319L56.0869 92.4418L54.0997 91.3988L52.1125 92.4418L52.4922 90.2319L50.8848 88.6669L53.1061 88.3439L54.0997 86.334Z" fill="#D8C65D"/>
<path d="M47.2583 86.334L47.7829 87.3939L48.9542 87.5638L48.1062 88.389L48.3065 89.555L47.2583 89.0049L46.2102 89.555L46.4104 88.389L45.5625 87.5638L46.7347 87.3939L47.2583 86.334Z" fill="#D8C65D"/>
<path d="M60.941 86.334L61.4655 87.3939L62.6368 87.5638L61.7889 88.389L61.9891 89.555L60.941 89.0049L59.8938 89.555L60.0931 88.389L59.2461 87.5638L60.4174 87.3939L60.941 86.334Z" fill="#D8C65D"/>
<path d="M49.8623 55.9169H49.1328V54.5322H52.3844V55.9169H51.6596V55.3246H51.2705V57.512H51.5337V58.3043H49.9845V57.512H50.2477V55.3246H49.8642V55.9169H49.8623Z" fill="white"/>
<path d="M54.0332 58.3043H52.752V57.512H53.0142V55.3246H52.752V54.5322H54.0332V55.9958H54.5954V54.5322H55.8766V55.3246H55.6134V57.512H55.8766V58.3043H54.5954V56.7778H54.0332V58.3043Z" fill="white"/>
<path d="M59.044 58.3043H56.2812V57.512H56.5435V55.3246H56.2812V54.5322H59.0074V55.7339H58.1406V55.3246H57.5682V56.0381H58.3559V56.7196H57.5682V57.512H58.1406V57.0294H59.044V58.3043Z" fill="white"/>
<path d="M18.7203 73.9728H13.8848V71.501H14.7045V64.675H13.8848V62.2031H22.5068V65.9517H19.6876V64.675H17.9015V66.9018H20.3607V69.03H17.9015V71.5019H18.7212V73.9737L18.7203 73.9728Z" fill="white"/>
<path d="M26.6042 73.9728C25.6858 73.9728 25.0118 73.7409 24.5803 73.2781C24.1489 72.8153 23.9336 72.0877 23.9336 71.0954V65.0805C23.9336 64.0892 24.1489 63.3607 24.5803 62.8978C25.0118 62.435 25.6868 62.2031 26.6042 62.2031H29.4074C30.3362 62.2031 31.0139 62.4322 31.4398 62.8894C31.8666 63.3475 32.079 64.0779 32.079 65.0796V71.0945C32.079 72.0868 31.8628 72.8134 31.4323 73.2772C30.9998 73.74 30.3258 73.9719 29.4084 73.9719H26.6052L26.6042 73.9728ZM27.1128 71.501H28.8989V64.675H27.1128V71.501Z" fill="white"/>
<path d="M36.6999 73.9728C35.7815 73.9728 35.1075 73.7409 34.676 73.2781C34.2446 72.8153 34.0293 72.0877 34.0293 71.0954V65.0805C34.0293 64.0892 34.2446 63.3607 34.676 62.8978C35.1075 62.435 35.7825 62.2031 36.6999 62.2031H39.5031C40.4319 62.2031 41.1096 62.4322 41.5355 62.8894C41.9623 63.3475 42.1747 64.0779 42.1747 65.0796V71.0945C42.1747 72.0868 41.9585 72.8134 41.527 73.2772C41.0955 73.74 40.4206 73.9719 39.5031 73.9719H36.6999V73.9728ZM37.2085 71.501H38.9946V64.675H37.2085V71.501Z" fill="white"/>
<path d="M45.9447 66.5254H43.666V62.2041H53.8118V66.5254H51.5501V64.676H50.3374V71.5019H51.1572V73.9738H46.3216V71.5019H47.1413V64.676H45.9447V66.5254Z" fill="white"/>
<path d="M61.434 73.9728H54.959V71.501H55.7787V64.675H54.959V62.2031H61.417C62.3674 62.2031 63.048 62.3965 63.4578 62.7824C63.8677 63.1691 64.0726 63.7972 64.0726 64.6675V65.6795C64.0726 66.8333 63.5481 67.5402 62.499 67.8012L62.3185 67.85L62.4821 67.8828C63.5415 68.2321 64.0717 68.9906 64.0717 70.1585V71.3207C64.0717 72.2811 63.8696 72.9636 63.4654 73.3673C63.0612 73.771 62.3834 73.9728 61.433 73.9728H61.434ZM58.9748 66.9018H60.8765V64.675H58.9748V66.9018ZM58.9748 71.5019H60.8765V69.03H58.9748V71.5019Z" fill="white"/>
<path d="M69.1198 73.9728H65.2676V71.501H66.0873L67.9072 62.2031H72.8903L74.6933 71.501H75.513V73.9728H71.6946L71.3017 71.1076H69.4818L69.1208 73.9728H69.1198ZM69.6933 69.062H71.1193L70.3814 64.3802L69.6933 69.062Z" fill="white"/>
<path d="M84.92 73.9728H76.4785V71.501H77.2982V64.675H76.4785V62.2031H81.3141V64.675H80.4944V71.501H81.9204V69.4384H84.92V73.9728Z" fill="white"/>
<path d="M94.379 73.9728H85.9375V71.501H86.7572V64.675H85.9375V62.2031H90.773V64.675H89.9533V71.501H91.3794V69.4384H94.379V73.9728Z" fill="white"/>
<path d="M28.3365 59.8627C24.4767 47.2669 25.9084 36.0361 27.576 28.2788C34.897 26.7739 44.9215 24.1932 54.1 20.0681C63.2804 24.1941 73.304 26.7739 80.625 28.2788C82.2926 36.0351 83.7252 47.2659 79.8655 59.8627H82.2212C86.0434 46.8566 84.5685 35.3207 82.5126 26.3562C74.4386 24.7715 63.71 22.048 54.101 17.5859C44.4919 22.048 33.7633 24.7715 25.6893 26.3562C23.6335 35.3217 22.1595 46.8576 25.9807 59.8627H28.3365Z" fill="#D8C65D"/>
</svg>
