<svg width="36" height="26" viewBox="0 0 36 26" fill="none" xmlns="http://www.w3.org/2000/svg">
<path d="M0.504795 6.09505C0.504795 6.34583 0.504795 6.48601 0.504795 6.62542C0.504795 12.3123 0.504795 17.9993 0.504795 23.6862C0.504795 24.9019 1.03642 25.43 2.26676 25.43C12.7601 25.43 23.2534 25.43 33.7467 25.43C34.9514 25.43 35.4892 24.8965 35.4892 23.7064C35.4892 18.0063 35.4892 12.3069 35.4892 6.60673V6.10362C35.2895 6.2477 35.1667 6.33337 35.047 6.42371C29.7688 10.3949 24.4899 14.3661 19.2126 18.3388C18.2877 19.0351 17.711 19.039 16.797 18.3505C12.2541 14.9315 7.71122 11.5125 3.16757 8.09427C2.31184 7.44941 1.45379 6.80689 0.504795 6.09505ZM18.0219 0.00859408C15.6249 0.00859408 13.228 0.00859408 10.831 0.00859408C7.95449 0.00859408 5.07798 0.00859408 2.20225 0.00859408C1.02476 0.00937289 0.512567 0.535074 0.500131 1.72433C0.497022 2.02651 0.547542 2.24691 0.817239 2.44941C6.45445 6.6776 12.0854 10.9151 17.7094 15.1605C17.9488 15.3412 18.0903 15.3053 18.3056 15.141C19.8103 13.9946 21.3243 12.8614 22.836 11.7243C26.9553 8.62465 31.0761 5.52573 35.1923 2.42215C35.3089 2.33414 35.4589 2.20642 35.4737 2.08258C35.6276 0.812333 35.1022 -0.00542463 33.8034 2.70915e-05C28.5432 0.0210551 23.2829 0.00859408 18.0227 0.00859408H18.0219Z" fill="white"/>
<path d="M0.504883 6.09514C1.45387 6.80698 2.31193 7.4495 3.16843 8.09358C7.71208 11.5118 12.255 14.9308 16.7978 18.3498C17.7126 19.0383 18.2893 19.0336 19.2135 18.3381C24.4908 14.3662 29.7697 10.3942 35.0478 6.42302C35.1675 6.33268 35.2903 6.24701 35.4901 6.10293V6.60604C35.4901 12.3062 35.4901 18.0056 35.4901 23.7057C35.4901 24.8958 34.9522 25.4293 33.7475 25.4293C23.2542 25.43 12.7609 25.43 2.26763 25.4293C1.03728 25.4293 0.50566 24.902 0.50566 23.6855C0.50566 17.9986 0.50566 12.3117 0.50566 6.62473C0.50566 6.48533 0.50566 6.34514 0.50566 6.09436L0.504883 6.09514Z" fill="#172945"/>
<path d="M18.5219 0.50863C19.7811 0.508808 21.0405 0.509617 22.3 0.510426C26.1342 0.51289 29.9696 0.515354 33.8046 0.500023L33.8047 0.500023C34.3475 0.497744 34.6313 0.663169 34.7841 0.864892C34.9422 1.07362 35.0369 1.42129 34.9865 1.94529C34.9786 1.9528 34.9693 1.96125 34.9584 1.9706C34.938 1.98806 34.9155 2.00591 34.8911 2.0244C31.4448 4.62241 27.9964 7.21711 24.5478 9.81192C23.8773 10.3165 23.2067 10.821 22.5361 11.3256L22.5361 11.3256C22.1644 11.6054 21.7922 11.8851 21.4197 12.1649C20.2801 13.0213 19.1386 13.8791 18.0033 14.7441L18.0244 14.7717C18.0204 14.7689 18.0161 14.7657 18.0115 14.7622L18.5219 0.50863ZM18.5219 0.50863V0.509373H18.0219H18.0078H17.9938H17.9797H17.9657H17.9517H17.9376H17.9236H17.9095H17.8955H17.8814H17.8674H17.8533H17.8393H17.8253H17.8112H17.7972H17.7831H17.7691H17.755H17.741H17.7269H17.7129H17.6989H17.6848H17.6708H17.6567H17.6427H17.6286H17.6146H17.6005H17.5865H17.5724H17.5584H17.5444H17.5303H17.5163H17.5022H17.4882H17.4741H17.4601H17.446H17.432H17.418H17.4039H17.3899H17.3758H17.3618H17.3477H17.3337H17.3196H17.3056H17.2916H17.2775H17.2635H17.2494H17.2354H17.2213H17.2073H17.1932H17.1792H17.1652H17.1511H17.1371H17.123H17.109H17.0949H17.0809H17.0668H17.0528H17.0388H17.0247H17.0107H16.9966H16.9826H16.9685H16.9545H16.9404H16.9264H16.9123H16.8983H16.8843H16.8702H16.8562H16.8421H16.8281H16.814H16.8H16.7859H16.7719H16.7579H16.7438H16.7298H16.7157H16.7017H16.6876H16.6736H16.6595H16.6455H16.6315H16.6174H16.6034H16.5893H16.5753H16.5612H16.5472H16.5331H16.5191H16.5051H16.491H16.477H16.4629H16.4489H16.4348H16.4208H16.4067H16.3927H16.3787H16.3646H16.3506H16.3365H16.3225H16.3084H16.2944H16.2803H16.2663H16.2522H16.2382H16.2242H16.2101H16.1961H16.182H16.168H16.1539H16.1399H16.1258H16.1118H16.0978H16.0837H16.0697H16.0556H16.0416H16.0275H16.0135H15.9994H15.9854H15.9714H15.9573H15.9433H15.9292H15.9152H15.9011H15.8871H15.873H15.859H15.845H15.8309H15.8169H15.8028H15.7888H15.7747H15.7607H15.7466H15.7326H15.7186H15.7045H15.6905H15.6764H15.6624H15.6483H15.6343H15.6202H15.6062H15.5921H15.5781H15.5641H15.55H15.536H15.5219H15.5079H15.4938H15.4798H15.4657H15.4517H15.4377H15.4236H15.4096H15.3955H15.3815H15.3674H15.3534H15.3393H15.3253H15.3113H15.2972H15.2832H15.2691H15.2551H15.241H15.227H15.2129H15.1989H15.1849H15.1708H15.1568H15.1427H15.1287H15.1146H15.1006H15.0865H15.0725H15.0585H15.0444H15.0304H15.0163H15.0023H14.9882H14.9742H14.9601H14.9461H14.932H14.918H14.904H14.8899H14.8759H14.8618H14.8478H14.8337H14.8197H14.8056H14.7916H14.7776H14.7635H14.7495H14.7354H14.7214H14.7073H14.6933H14.6792H14.6652H14.6512H14.6371H14.6231H14.609H14.595H14.5809H14.5669H14.5528H14.5388H14.5248H14.5107H14.4967H14.4826H14.4686H14.4545H14.4405H14.4264H14.4124H14.3983H14.3843H14.3703H14.3562H14.3422H14.3281H14.3141H14.3H14.286H14.2719H14.2579H14.2439H14.2298H14.2158H14.2017H14.1877H14.1736H14.1596H14.1455H14.1315H14.1175H14.1034H14.0894H14.0753H14.0613H14.0472H14.0332H14.0191H14.0051H13.9911H13.977H13.963H13.9489H13.9349H13.9208H13.9068H13.8927H13.8787H13.8647H13.8506H13.8366H13.8225H13.8085H13.7944H13.7804H13.7663H13.7523H13.7382H13.7242H13.7102H13.6961H13.6821H13.668H13.654H13.6399H13.6259H13.6118H13.5978H13.5838H13.5697H13.5557H13.5416H13.5276H13.5135H13.4995H13.4854H13.4714H13.4574H13.4433H13.4293H13.4152H13.4012H13.3871H13.3731H13.359H13.345H13.331H13.3169H13.3029H13.2888H13.2748H13.2607H13.2467H13.2326H13.2186H13.2046H13.1905H13.1765H13.1624H13.1484H13.1343H13.1203H13.1062H13.0922H13.0781H13.0641H13.0501H13.036H13.022H13.0079H12.9939H12.9798H12.9658H12.9517H12.9377H12.9237H12.9096H12.8956H12.8815H12.8675H12.8534H12.8394H12.8253H12.8113H12.7973H12.7832H12.7692H12.7551H12.7411H12.727H12.713H12.6989H12.6849H12.6709H12.6568H12.6428H12.6287H12.6147H12.6006H12.5866H12.5725H12.5585H12.5445H12.5304H12.5164H12.5023H12.4883H12.4742H12.4602H12.4461H12.4321H12.418H12.404H12.39H12.3759H12.3619H12.3478H12.3338H12.3197H12.3057H12.2916H12.2776H12.2636H12.2495H12.2355H12.2214H12.2074H12.1933H12.1793H12.1652H12.1512H12.1372H12.1231H12.1091H12.095H12.081H12.0669H12.0529H12.0388H12.0248H12.0108H11.9967H11.9827H11.9686H11.9546H11.9405H11.9265H11.9124H11.8984H11.8844H11.8703H11.8563H11.8422H11.8282H11.8141H11.8001H11.786H11.772H11.7579H11.7439H11.7299H11.7158H11.7018H11.6877H11.6737H11.6596H11.6456H11.6315H11.6175H11.6035H11.5894H11.5754H11.5613H11.5473H11.5332H11.5192H11.5051H11.4911H11.4771H11.463H11.449H11.4349H11.4209H11.4068H11.3928H11.3787H11.3647H11.3507H11.3366H11.3226H11.3085H11.2945H11.2804H11.2664H11.2523H11.2383H11.2243H11.2102H11.1962H11.1821H11.1681H11.154H11.14H11.1259H11.1119H11.0978H11.0838H11.0698H11.0557H11.0417H11.0276H11.0136H10.9995H10.9855H10.9714H10.9574H10.9434H10.9293H10.9153H10.9012H10.8872H10.8731H10.8591H10.845H10.831H10.8141H10.7973H10.7804H10.7636H10.7467H10.7299H10.713H10.6962H10.6793H10.6625H10.6456H10.6288H10.6119H10.5951H10.5782H10.5614H10.5445H10.5277H10.5108H10.494H10.4771H10.4603H10.4434H10.4266H10.4097H10.3929H10.376H10.3592H10.3423H10.3255H10.3086H10.2918H10.2749H10.2581H10.2412H10.2244H10.2075H10.1907H10.1738H10.157H10.1401H10.1233H10.1064H10.0896H10.0727H10.0559H10.039H10.0222H10.0053H9.98848H9.97163H9.95478H9.93793H9.92107H9.90422H9.88737H9.87052H9.85367H9.83682H9.81997H9.80312H9.78627H9.76942H9.75257H9.73571H9.71886H9.70201H9.68516H9.66831H9.65146H9.63461H9.61776H9.60091H9.58405H9.5672H9.55035H9.5335H9.51665H9.4998H9.48295H9.46609H9.44924H9.43239H9.41554H9.39869H9.38184H9.36499H9.34814H9.33128H9.31443H9.29758H9.28073H9.26388H9.24703H9.23018H9.21332H9.19647H9.17962H9.16277H9.14592H9.12907H9.11221H9.09536H9.07851H9.06166H9.04481H9.02796H9.0111H8.99425H8.9774H8.96055H8.9437H8.92685H8.90999H8.89314H8.87629H8.85944H8.84259H8.82574H8.80888H8.79203H8.77518H8.75833H8.74148H8.72462H8.70777H8.69092H8.67407H8.65722H8.64036H8.62351H8.60666H8.58981H8.57296H8.5561H8.53925H8.5224H8.50555H8.4887H8.47184H8.45499H8.43814H8.42129H8.40443H8.38758H8.37073H8.35388H8.33703H8.32017H8.30332H8.28647H8.26962H8.25276H8.23591H8.21906H8.20221H8.18535H8.1685H8.15165H8.1348H8.11795H8.10109H8.08424H8.06739H8.05054H8.03368H8.01683H7.99998H7.98313H7.96627H7.94942H7.93257H7.91572H7.89886H7.88201H7.86516H7.84831H7.83145H7.8146H7.79775H7.78089H7.76404H7.74719H7.73034H7.71348H7.69663H7.67978H7.66293H7.64607H7.62922H7.61237H7.59552H7.57866H7.56181H7.54496H7.5281H7.51125H7.4944H7.47755H7.46069H7.44384H7.42699H7.41013H7.39328H7.37643H7.35958H7.34272H7.32587H7.30902H7.29216H7.27531H7.25846H7.2416H7.22475H7.2079H7.19105H7.17419H7.15734H7.14049H7.12363H7.10678H7.08993H7.07307H7.05622H7.03937H7.02252H7.00566H6.98881H6.97196H6.9551H6.93825H6.9214H6.90454H6.88769H6.87084H6.85398H6.83713H6.82028H6.80342H6.78657H6.76972H6.75286H6.73601H6.71916H6.7023H6.68545H6.6686H6.65174H6.63489H6.61804H6.60118H6.58433H6.56748H6.55062H6.53377H6.51692H6.50006H6.48321H6.46636H6.4495H6.43265H6.4158H6.39894H6.38209H6.36524H6.34838H6.33153H6.31468H6.29782H6.28097H6.26412H6.24726H6.23041H6.21355H6.1967H6.17985H6.16299H6.14614H6.12929H6.11243H6.09558H6.07873H6.06187H6.04502H6.02817H6.01131H5.99446H5.9776H5.96075H5.9439H5.92704H5.91019H5.89334H5.87648H5.85963H5.84277H5.82592H5.80907H5.79221H5.77536H5.75851H5.74165H5.7248H5.70794H5.69109H5.67424H5.65738H5.64053H5.62368H5.60682H5.58997H5.57311H5.55626H5.53941H5.52255H5.5057H5.48884H5.47199H5.45514H5.43828H5.42143H5.40458H5.38772H5.37087H5.35401H5.33716H5.32031H5.30345H5.2866H5.26974H5.25289H5.23604H5.21918H5.20233H5.18547H5.16862H5.15177H5.13491H5.11806H5.1012H5.08435H5.0675H5.05064H5.03379H5.01693H5.00008H4.98323H4.96637H4.94952H4.93266H4.91581H4.89896H4.8821H4.86525H4.84839H4.83154H4.81468H4.79783H4.78098H4.76412H4.74727H4.73041H4.71356H4.69671H4.67985H4.663H4.64614H4.62929H4.61243H4.59558H4.57873H4.56187H4.54502H4.52816H4.51131H4.49446H4.4776H4.46075H4.44389H4.42704H4.41018H4.39333H4.37648H4.35962H4.34277H4.32591H4.30906H4.2922H4.27535H4.2585H4.24164H4.22479H4.20793H4.19108H4.17422H4.15737H4.14052H4.12366H4.10681H4.08995H4.0731H4.05624H4.03939H4.02254H4.00568H3.98883H3.97197H3.95512H3.93826H3.92141H3.90456H3.8877H3.87085H3.85399H3.83714H3.82028H3.80343H3.78657H3.76972H3.75287H3.73601H3.71916H3.7023H3.68545H3.66859H3.65174H3.63489H3.61803H3.60118H3.58432H3.56747H3.55061H3.53376H3.5169H3.50005H3.4832H3.46634H3.44949H3.43263H3.41578H3.39892H3.38207H3.36521H3.34836H3.33151H3.31465H3.2978H3.28094H3.26409H3.24723H3.23038H3.21352H3.19667H3.17981H3.16296H3.14611H3.12925H3.1124H3.09554H3.07869H3.06183H3.04498H3.02812H3.01127H2.99442H2.97756H2.96071H2.94385H2.927H2.91014H2.89329H2.87643H2.85958H2.84273H2.82587H2.80902H2.79216H2.77531H2.75845H2.7416H2.72474H2.70789H2.69103H2.67418H2.65733H2.64047H2.62362H2.60676H2.58991H2.57305H2.5562H2.53934H2.52249H2.50563H2.48878H2.47193H2.45507H2.43822H2.42136H2.40451H2.38765H2.3708H2.35394H2.33709H2.32023H2.30338H2.28653H2.26967H2.25282H2.23596H2.21911H2.20225C1.6767 0.509373 1.41275 0.627821 1.26993 0.772337C1.12474 0.919255 1.00573 1.19286 1.0001 1.72947L18.5219 0.50863ZM18.0351 14.7858L18.3063 15.1418L18.0351 14.7858Z" fill="#172945" stroke="#172945"/>
</svg>
